# xmcd
#
# Track frame offsets: 
#        150
#        12948
#        24064
#        37186
#        52075
#        74670
#        88043
#        102351
#        116004
#        129332
#        143598
#        158531
#        257702
#
# Disc length: 3660 seconds
#
# Revision: 0
# Processed by: cddbd v1.5.2PL0 Copyright (c) Steve Scherf et al.
# Submitted via: ExactAudioCopy v1.0b3
#
DISCID=ab0e4a0d
DTITLE=Blues Garage - Full Service
DYEAR=1998
DGENRE=Blues
TTITLE0=What's Wrong with You
TTITLE1=Light by the Window
TTITLE2=Back Door Man
TTITLE3=Stone Cold Blue
TTITLE4=Right Turn
TTITLE5=The Pain
TTITLE6=I Got Money
TTITLE7=Dairy Queen
TTITLE8=Hold On
TTITLE9=Whole Lotta Nothin'
TTITLE10=Next Time
TTITLE11=I Don't Deserve This
TTITLE12=Hidden track\\end sequence
EXTD=
EXTT0=
EXTT1=
EXTT2=
EXTT3=
EXTT4=
EXTT5=
EXTT6=
EXTT7=
EXTT8=
EXTT9=
EXTT10=
EXTT11=
EXTT12=
PLAYORDER=
